<mxfile host="65bd71144e">
    <diagram id="BY9nFZxJ1kpBO6ZFAUXN" name="Page-1">
        <mxGraphModel dx="741" dy="1966" grid="1" gridSize="10" guides="1" tooltips="1" connect="1" arrows="1" fold="1" page="1" pageScale="1" pageWidth="827" pageHeight="1169" math="0" shadow="0">
            <root>
                <mxCell id="0"/>
                <mxCell id="1" parent="0"/>
                <mxCell id="6" value="" style="edgeStyle=none;html=1;exitX=1;exitY=0.75;exitDx=0;exitDy=0;entryX=0;entryY=0.75;entryDx=0;entryDy=0;" edge="1" parent="1" source="2" target="5">
                    <mxGeometry relative="1" as="geometry">
                        <Array as="points"/>
                    </mxGeometry>
                </mxCell>
                <mxCell id="2" value="Frontend" style="rounded=1;whiteSpace=wrap;html=1;" vertex="1" parent="1">
                    <mxGeometry x="140" y="120" width="120" height="60" as="geometry"/>
                </mxCell>
                <mxCell id="4" value="" style="edgeStyle=none;html=1;" edge="1" parent="1" source="3" target="2">
                    <mxGeometry relative="1" as="geometry"/>
                </mxCell>
                <mxCell id="3" value="" style="shape=umlActor;verticalLabelPosition=bottom;verticalAlign=top;html=1;outlineConnect=0;" vertex="1" parent="1">
                    <mxGeometry x="40" y="130" width="20" height="40" as="geometry"/>
                </mxCell>
                <mxCell id="7" value="" style="edgeStyle=none;html=1;entryX=1;entryY=0.25;entryDx=0;entryDy=0;exitX=0;exitY=0.25;exitDx=0;exitDy=0;" edge="1" parent="1" source="5" target="2">
                    <mxGeometry relative="1" as="geometry">
                        <Array as="points"/>
                    </mxGeometry>
                </mxCell>
                <mxCell id="10" value="" style="edgeStyle=none;html=1;entryX=0.145;entryY=0;entryDx=0;entryDy=4.35;entryPerimeter=0;" edge="1" parent="1" target="8">
                    <mxGeometry relative="1" as="geometry">
                        <mxPoint x="360" y="180" as="sourcePoint"/>
                        <Array as="points"/>
                    </mxGeometry>
                </mxCell>
                <mxCell id="13" style="edgeStyle=none;html=1;" edge="1" parent="1" source="5">
                    <mxGeometry relative="1" as="geometry">
                        <mxPoint x="50" y="120" as="targetPoint"/>
                        <Array as="points">
                            <mxPoint x="390" y="40"/>
                            <mxPoint x="50" y="40"/>
                        </Array>
                    </mxGeometry>
                </mxCell>
                <mxCell id="5" value="Backend&lt;br&gt;(Serverless)" style="rounded=1;whiteSpace=wrap;html=1;" vertex="1" parent="1">
                    <mxGeometry x="330" y="120" width="120" height="60" as="geometry"/>
                </mxCell>
                <mxCell id="9" value="" style="edgeStyle=none;html=1;entryX=0.75;entryY=1;entryDx=0;entryDy=0;exitX=0.855;exitY=0;exitDx=0;exitDy=4.35;exitPerimeter=0;" edge="1" parent="1" source="8" target="5">
                    <mxGeometry relative="1" as="geometry">
                        <mxPoint x="430" y="210" as="sourcePoint"/>
                        <Array as="points"/>
                    </mxGeometry>
                </mxCell>
                <mxCell id="8" value="DB &amp;amp; S3&lt;br&gt;Auth &amp;amp; Buyer info" style="shape=cylinder3;whiteSpace=wrap;html=1;boundedLbl=1;backgroundOutline=1;size=15;" vertex="1" parent="1">
                    <mxGeometry x="325" y="230" width="130" height="90" as="geometry"/>
                </mxCell>
                <mxCell id="17" value="&lt;h1 style=&quot;font-size: 13px;&quot;&gt;&lt;font style=&quot;font-size: 13px;&quot;&gt;Email&lt;/font&gt;&lt;/h1&gt;&lt;p style=&quot;font-size: 13px;&quot;&gt;&lt;span style=&quot;text-align: center;&quot;&gt;&lt;font style=&quot;font-size: 13px;&quot;&gt;Invoice in docx &amp;amp; pdf format will be sent to the user through an email&lt;/font&gt;&lt;/span&gt;&lt;br&gt;&lt;/p&gt;" style="text;html=1;strokeColor=none;fillColor=none;spacing=5;spacingTop=-20;whiteSpace=wrap;overflow=hidden;rounded=0;" vertex="1" parent="1">
                    <mxGeometry x="130" y="-30" width="210" height="100" as="geometry"/>
                </mxCell>
                <mxCell id="20" value="&lt;h1 style=&quot;font-size: 13px;&quot;&gt;Authentication, Generated Invoice files &amp;amp; Buyer Info&lt;/h1&gt;&lt;p style=&quot;font-size: 13px;&quot;&gt;Have an Auth for Login of Admin &amp;amp; Buyer info in relational or non-relational, anything which is cheap &amp;amp; fast since this is not scalable.&lt;br&gt;&lt;br&gt;Store generated files in S3&lt;/p&gt;" style="text;html=1;strokeColor=none;fillColor=none;spacing=5;spacingTop=-20;whiteSpace=wrap;overflow=hidden;rounded=0;align=left;" vertex="1" parent="1">
                    <mxGeometry x="470" y="150" width="210" height="150" as="geometry"/>
                </mxCell>
                <mxCell id="21" value="&lt;h1 style=&quot;font-size: 13px;&quot;&gt;Invoice generation&lt;/h1&gt;&lt;p style=&quot;font-size: 13px;&quot;&gt;Send details which would generate invoice, show response &amp;amp; contain error handling.&lt;/p&gt;" style="text;html=1;strokeColor=none;fillColor=none;spacing=5;spacingTop=-20;whiteSpace=wrap;overflow=hidden;rounded=0;" vertex="1" parent="1">
                    <mxGeometry x="80" y="200" width="210" height="90" as="geometry"/>
                </mxCell>
            </root>
        </mxGraphModel>
    </diagram>
</mxfile>